<?xml version="1.0" encoding="utf-8"?>
<!-- Generator: Adobe Illustrator 16.0.0, SVG Export Plug-In . SVG Version: 6.00 Build 0)  -->
<!DOCTYPE svg PUBLIC "-//W3C//DTD SVG 1.1//EN" "http://www.w3.org/Graphics/SVG/1.1/DTD/svg11.dtd">
<svg version="1.1" id="Layer_1" xmlns="http://www.w3.org/2000/svg" xmlns:xlink="http://www.w3.org/1999/xlink" x="0px" y="0px"
	 width="44px" height="40px" viewBox="0 0 44 40" enable-background="new 0 0 44 40" xml:space="preserve">
<path d="M40.34,31.191l-7-3.474c-0.656-0.321-1.071-0.989-1.07-1.72v-2.459c0.16-0.2,0.34-0.436,0.521-0.691
	c0.922-1.295,1.652-2.715,2.17-4.218c1.036-0.466,1.704-1.494,1.71-2.63v-2.909c-0.005-0.705-0.269-1.384-0.74-1.909V7.313
	c0.146-1.723-0.405-3.432-1.529-4.745C32.891,0.868,30.45,0,27.13,0c-3.319,0-5.76,0.864-7.26,2.567
	c-0.854,0.983-1.385,2.205-1.52,3.5c-1.375-0.673-2.89-1.006-4.42-0.971c-7.62,0-8.06,6.44-8.06,6.545v3.33
	c-0.454,0.45-0.718,1.056-0.74,1.695v2.512c0.003,0.78,0.355,1.517,0.96,2.011c0.514,1.716,1.433,3.283,2.68,4.569v2
	c-0.007,0.587-0.338,1.123-0.86,1.392l-4.88,3.035C1.166,33.188,0.002,35.131,0,37.247V40h1.469l0.001-2.762
	c0.003-1.597,0.888-3.061,2.3-3.807l4.88-3.033c0.975-0.524,1.582-1.542,1.58-2.648v-2.611L10,24.922
	c-1.215-1.193-2.091-2.688-2.54-4.331l-0.07-0.288l-0.25-0.16c-0.334-0.209-0.539-0.576-0.54-0.97v-2.512
	c0.042-0.339,0.219-0.646,0.49-0.854l0.24-0.216v-3.913c0.02-0.209,0.4-5.133,6.6-5.133c1.555-0.057,3.09,0.362,4.4,1.2v3.441
	c-0.469,0.525-0.729,1.205-0.73,1.909V16c0.003,0.218,0.026,0.436,0.07,0.649c0.025,0.083,0.055,0.164,0.09,0.243
	c0.034,0.125,0.077,0.246,0.13,0.364c0.192,0.39,0.469,0.731,0.811,1c0,0.014,0.01,0.026,0.01,0.039
	c0.04,0.167,0.09,0.333,0.14,0.495l0.06,0.189l0.03,0.1c0.03,0.078,0.05,0.156,0.08,0.233c0.04,0.127,0.09,0.259,0.14,0.4
	c0.027,0.056,0.051,0.114,0.07,0.173c0.06,0.152,0.12,0.3,0.19,0.444c0.01,0.035,0.03,0.073,0.04,0.107l0.04,0.091
	c0.02,0.043,0.04,0.08,0.06,0.121c0.07,0.156,0.14,0.307,0.22,0.453c0.01,0.022,0.02,0.047,0.03,0.071
	c0.05,0.091,0.09,0.177,0.14,0.265c0.08,0.148,0.16,0.291,0.23,0.427c0.04,0.067,0.08,0.132,0.12,0.2c0.1,0.179,0.2,0.343,0.3,0.5
	c0.02,0.033,0.04,0.066,0.06,0.1c0.18,0.273,0.33,0.494,0.46,0.666c0.035,0.037,0.065,0.079,0.09,0.124
	c0.02,0.021,0.04,0.051,0.06,0.069v2.408c-0.002,0.704-0.39,1.352-1.01,1.687l-1.94,1.05l-0.34-0.029l-0.14,0.286l-4.13,2.232
	c-2.116,1.144-3.437,3.354-3.44,5.761L10.266,40H11h0.688l0.042-1.63v-1.452c0.002-1.875,1.036-3.598,2.69-4.482l6.54-3.539
	c1.089-0.59,1.768-1.728,1.771-2.965v-2.923L22.59,22.84l-0.029-0.033c-0.038-0.053-0.078-0.104-0.121-0.151
	c0-0.007-0.01-0.013-0.01-0.019c-0.04-0.05-0.09-0.109-0.14-0.182c-0.11-0.151-0.25-0.346-0.4-0.582c0,0-0.01-0.012-0.01-0.016
	c-0.07-0.111-0.15-0.233-0.23-0.361c0-0.01-0.01-0.02-0.01-0.03c-0.17-0.274-0.34-0.587-0.52-0.933
	c-0.09-0.185-0.19-0.38-0.28-0.583c-0.009-0.03-0.022-0.059-0.04-0.085c-0.04-0.091-0.08-0.187-0.12-0.284
	c-0.01-0.036-0.03-0.073-0.04-0.109c-0.04-0.095-0.08-0.191-0.12-0.3c-0.07-0.2-0.15-0.405-0.21-0.618l-0.04-0.129
	c-0.01-0.015-0.01-0.029-0.02-0.045c-0.07-0.229-0.13-0.464-0.19-0.706L20,17.386l-0.25-0.16c-0.422-0.262-0.68-0.723-0.68-1.219
	v-2.909c0-0.412,0.178-0.804,0.49-1.073l0.24-0.216V7.022l-0.02-0.015c-0.053-1.266,0.372-2.506,1.19-3.474
	c1.22-1.375,3.29-2.072,6.16-2.072s4.939,0.692,6.149,2.057c0.863,1.019,1.29,2.335,1.19,3.666V11.8l0.239,0.217
	c0.313,0.269,0.491,0.66,0.49,1.072V16c-0.004,0.639-0.427,1.2-1.039,1.381l-0.371,0.111l-0.119,0.36
	c-0.473,1.483-1.17,2.884-2.07,4.155c-0.191,0.273-0.398,0.536-0.62,0.785l-0.18,0.206v3c-0.003,1.283,0.728,2.457,1.88,3.021
	l7.01,3.473c1.741,0.854,2.844,2.627,2.84,4.566L42.516,40H44v-2.941C44.004,34.564,42.583,32.285,40.34,31.191z"/>
</svg>
